<?xml version="1.0" encoding="UTF-8" standalone="no"?>
<svg
   width="500px"
   height="500px"
   version="1.1"
   xml:space="preserve"
   style="fill-rule:evenodd;clip-rule:evenodd;stroke-linecap:round;stroke-linejoin:round;stroke-miterlimit:1.5;"
   id="svg11"
   sodipodi:docname="venn_.svg"
   inkscape:version="1.4.2 (f4327f4, 2025-05-13)"
   xmlns:inkscape="http://www.inkscape.org/namespaces/inkscape"
   xmlns:sodipodi="http://sodipodi.sourceforge.net/DTD/sodipodi-0.dtd"
   xmlns="http://www.w3.org/2000/svg"
   xmlns:svg="http://www.w3.org/2000/svg"><defs
   id="defs11" /><sodipodi:namedview
   id="namedview11"
   pagecolor="#ffffff"
   bordercolor="#000000"
   borderopacity="0.25"
   inkscape:showpageshadow="2"
   inkscape:pageopacity="0.0"
   inkscape:pagecheckerboard="0"
   inkscape:deskcolor="#d1d1d1"
   inkscape:zoom="1.546"
   inkscape:cx="281.6947"
   inkscape:cy="297.21863"
   inkscape:window-width="1920"
   inkscape:window-height="1017"
   inkscape:window-x="-8"
   inkscape:window-y="-8"
   inkscape:window-maximized="1"
   inkscape:current-layer="g11" />
    <g
   id="g11">
        <g
   id="g2"><path
   id="rect11"
   style="fill:none;stroke:#000000;stroke-width:1;stroke-opacity:1;stroke-dasharray:none"
   d="M 131.229,47.396 H 368.77101 V 284.93801 H 131.229 Z" />
            <path
   d="M131.729,333.833C131.729,268.558 184.725,215.562 250,215.562C315.275,215.562 368.271,268.558 368.271,333.833C368.271,399.108 315.275,452.104 250,452.104C184.725,452.104 131.729,399.108 131.729,333.833Z"
   style="fill:none;stroke:black;stroke-width:1px;"
   id="path1" />
            
        </g>
        <path
   d="M209.569,277.406L174.687,242.524"
   style="fill:none;stroke:black;stroke-width:1px;"
   id="path3" />
        <path
   d="M231.887,282.888L184.443,235.443"
   style="fill:none;stroke:black;stroke-width:1px;"
   id="path4" />
        <path
   d="M250.139,284.303L194.811,228.975"
   style="fill:none;stroke:black;stroke-width:1px;"
   id="path5" />
        <path
   d="M265.964,283.292L206.459,223.787"
   style="fill:none;stroke:black;stroke-width:1px;"
   id="path6" />
        <path
   d="M279.961,280.452L219.08,219.571"
   style="fill:none;stroke:black;stroke-width:1px;"
   id="path7" />
        <path
   d="M292.693,276.348L233.042,216.697"
   style="fill:none;stroke:black;stroke-width:1px;"
   id="path8" />
        <path
   d="M304.308,271.126L248.486,215.304"
   style="fill:none;stroke:black;stroke-width:1px;"
   id="path9" />
        <path
   d="M314.968,264.949L266.676,216.658"
   style="fill:none;stroke:black;stroke-width:1px;"
   id="path10" />
        <path
   d="M324.68,257.825L288.775,221.92"
   style="fill:none;stroke:black;stroke-width:1px;"
   id="path11" />
    </g>
</svg>
